<svg xmlns="http://www.w3.org/2000/svg" viewBox="3626.3 6782.9 1019.8 1019.4" fill="none"><defs> <linearGradient id="paint24_linear_8623_3974" x1="3786.29" y1="7746.09" x2="4019.31" y2="7352.6" gradientUnits="userSpaceOnUse"> <stop stop-color="#0B0B0B"/> <stop offset="0.70" stop-color="#1F1F1F"/> <stop offset="1" stop-color="#252525"/> </linearGradient> <linearGradient id="paint25_linear_8623_3974" x1="4192.73" y1="7175.24" x2="4587.55" y2="6946.06" gradientUnits="userSpaceOnUse"> <stop stop-color="#252525"/> <stop offset="0.29" stop-color="#1F1F1F"/> <stop offset="1" stop-color="#0B0B0B"/> </linearGradient> </defs><path d="M4108.4 7470.61C4133.67 7495.86 4133.67 7536.81 4108.4 7562.06L3944.47 7725.91C3887.62 7782.74 3795.46 7782.74 3738.61 7725.91L3658.55 7645.89C3645.92 7633.26 3645.92 7612.79 3658.55 7600.16L3948.29 7310.56L4108.4 7470.61Z" fill="url(#paint24_linear_8623_3974)"/><path d="M4443.87 6815.18C4456.51 6802.55 4476.99 6802.55 4489.62 6815.18L4569.68 6895.2C4626.52 6952.02 4626.52 7044.15 4569.68 7100.97L4405.75 7264.83C4380.48 7290.09 4339.52 7290.09 4314.25 7264.83L4154.14 7104.79L4443.87 6815.18Z" fill="url(#paint25_linear_8623_3974)"/><path d="M4363.82 7520.14C4420.66 7463.32 4512.83 7463.32 4569.68 7520.14C4626.52 7576.96 4626.52 7669.09 4569.68 7725.91C4512.83 7782.74 4420.66 7782.74 4363.82 7725.91C4306.97 7669.09 4306.97 7576.96 4363.82 7520.14Z" fill="#0B0B0B"/><path d="M3738.61 6895.2C3795.45 6838.38 3887.62 6838.38 3944.47 6895.2L4257.07 7207.67C4200.23 7150.85 4108.06 7150.85 4051.21 7207.67C3994.36 7264.49 3994.36 7356.62 4051.21 7413.44L3738.61 7100.97C3681.76 7044.15 3681.76 6952.02 3738.61 6895.2Z" fill="#0B0B0B"/></svg>