<svg xmlns="http://www.w3.org/2000/svg" viewBox="0 -1.26 44.19 44.19" fill="none">
  <path id="Vector" d="M43.248 3.09962C43.3882 3.10002 43.5265 3.13174 43.6531 3.19253C43.7797 3.25332 43.8915 3.34168 43.9804 3.45127C44.0693 3.56087 44.1333 3.689 44.1676 3.82651C44.2019 3.96402 44.2058 4.1075 44.179 4.2467L40.3136 24.423C39.7694 27.2427 38.1569 29.7349 35.8208 31.3669L35.9423 30.7934L37.2982 23.747C37.7214 21.5193 37.6533 19.2245 37.0986 17.0265C36.544 14.8285 35.5165 12.7817 34.0897 11.0322C32.6628 9.28276 30.8718 7.87388 28.8447 6.90627C26.8175 5.93865 24.6041 5.43618 22.3628 5.43475H15.0166C16.9276 3.91805 19.2868 3.09562 21.7152 3.09962H43.248Z" fill="#B9F641"/>
  <path id="Vector_2" d="M3.86567 17.3548C4.33649 14.8745 5.64698 12.638 7.5715 11.0303C9.49602 9.42262 11.9141 8.54441 14.4095 8.54688H22.3224C24.1028 8.55482 25.8597 8.95894 27.4686 9.73062C29.0775 10.5023 30.4991 11.6226 31.6326 13.0123C32.7661 14.4019 33.5838 16.0269 34.0278 17.772C34.4718 19.5171 34.5312 21.3397 34.2018 23.1107L32.7245 30.8125C32.3052 33.0033 31.144 34.9774 29.4409 36.3945C27.7378 37.8117 25.5997 38.5831 23.3949 38.5758H0.951461C0.811335 38.5754 0.673025 38.5436 0.546422 38.4828C0.419818 38.4221 0.308049 38.3337 0.219105 38.2241C0.130161 38.1145 0.0662399 37.9864 0.0319124 37.8489C-0.00241519 37.7114 -0.00630129 37.5679 0.020532 37.4287L3.86567 17.3548Z" fill="#B9F641"/>
</svg>
